<?xml version="1.0" encoding="utf-8"?><!-- Uploaded to: SVG Repo, www.svgrepo.com, Generator: SVG Repo Mixer Tools -->

<svg viewBox="0 0 200 200" xmlns="http://www.w3.org/2000/svg">
  <defs>
    <linearGradient id="gradient" x1="0%" y1="0%" x2="100%" y2="100%">
      <stop offset="0%" style="stop-color:#6C3BBF;" />
      <stop offset="50%" style="stop-color:#57d6c2;" />
      <stop offset="100%" style="stop-color:#fff;" />
    </linearGradient>
  </defs>
  <path fill="url(#gradient)"  d="M37.8,-65C46.6,-60.4,49.6,-45.4,48.8,-32.8C47.9,-20.3,43,-10.1,40.8,-1.3C38.7,7.6,39.1,15.2,40.6,28.9C42.1,42.5,44.7,62.2,38.1,75C31.5,87.9,15.8,93.8,-0.1,94C-15.9,94.1,-31.8,88.3,-44.5,79C-57.2,69.7,-66.7,56.8,-72.8,43.1C-79,29.3,-81.8,14.7,-75.5,3.6C-69.3,-7.4,-53.9,-14.8,-47.9,-28.8C-41.8,-42.8,-45.2,-63.4,-38.7,-69.4C-32.3,-75.3,-16.2,-66.7,-0.8,-65.3C14.5,-63.8,29,-69.6,37.8,-65Z" transform="translate(100 100)" />
</svg>




